<svg id="Layer_1" data-name="Layer 1" xmlns="http://www.w3.org/2000/svg" viewBox="0 0 386.49 63.94"><defs><style>.cls-1{fill:#d83f87;}.cls-2{fill:#f8ca4c;}</style></defs><g id="SvgjsG1400"><rect class="cls-1" x="24.05" y="55.92" width="8.02" height="8.02"/><path class="cls-1" d="M88.21,8V24h-8V16h-8V8h8V0h-8V8h-8v8H32.08V8h-8V0H16V8h8v8H16v8H8V8H0V32.06H16v8h8V47.9h8v8h8v-8h16v8h8v-8h8V40.09h8v-8H96.24V8ZM32.08,24.07v8h-8V24h8Zm40.1,8h-8V24h8Z" transform="translate(0 0)"/><rect class="cls-1" x="64.16" y="55.92" width="8.02" height="8.02"/></g><g id="SvgjsG1401"><path class="cls-2" d="M134.05,60.48l.22-2.33a13,13,0,0,1-7-2.8,17.69,17.69,0,0,1-4.62-5.86,28.36,28.36,0,0,1-2.51-7.79,48.79,48.79,0,0,1-.77-8.58v-2.7a44.07,44.07,0,0,1,1-9.13,28,28,0,0,1,2.91-8,16.72,16.72,0,0,1,5.06-5.64,12.61,12.61,0,0,1,7.38-2.14,13.5,13.5,0,0,1,5.68.94,20.35,20.35,0,0,1,3.57,2.18l1.45-1.81a18.66,18.66,0,0,0-4.47-2.66,16.39,16.39,0,0,0-6.23-1q-8.37,0-13.49,7.46T117,30.42v2.7q0,11.77,4.55,19.13t12.48,8.23Zm4,0a18.46,18.46,0,0,0,10.69-4.15l.44-.36V36.54H134.85v2.4h12V54.87a16.9,16.9,0,0,1-9,3.28Zm40-50.43q0,.43,2.58,8.33l5.64,17.28q3.06,9.39,8.22,24.82h3.13L178.37,3.13h-.58L158.65,60.48h3Zm-1.31,34.13h-2.62l4.36,16.3h2.62Zm63.38,16.3V3.13h-2.4L223.63,29.4l-9.39-17.46-2.11,1.16,11.5,21.33L237.82,7.94V60.48Zm-30.71,0V8.08L210,9.17l2.11-1.09-2.69-4.95h-2.33V60.48Zm42.21-21.25V5.17h17.46v-2h-19.5v36.1Zm18.19,21.25v-2H251.65V43.45h2.91v-2h-4.95v19Zm11.93-22V3.13H279.3V60.48h2.47v-22Zm1,2.33H304V60.48h2.48V18.2H304V38.5H282.79Zm65-37.62V41.92q0,7.63-4,11.79a14.37,14.37,0,0,1-9.64,4.51v2.26a15.68,15.68,0,0,0,11.2-5.17q4.23-4.73,4.22-13.39V3.21ZM331.4,58.29a13.82,13.82,0,0,1-9.46-4.58q-3.78-4.16-3.78-11.79V3.21H316V41.92q0,8.73,4.18,13.43a15.69,15.69,0,0,0,11.24,5.13V58.29ZM359,27.51v33h14a12.1,12.1,0,0,0,9.9-4.44q3.64-4.44,3.64-11.5a23.51,23.51,0,0,0-.47-4.33,19.14,19.14,0,0,0-1.6-4.73,14.91,14.91,0,0,0-3.06-4.15,10.59,10.59,0,0,0-5-2.58,11.07,11.07,0,0,0,4.43-5.06A16.33,16.33,0,0,0,382.2,17q0-6.69-3.71-10.29T368.37,3.13H359V25.77h2.55l-.07-19.65h7.13c4,0,6.86,1,8.51,3.16A12.21,12.21,0,0,1,379.58,17q0,4.95-2.26,7.68a7.58,7.58,0,0,1-6.18,2.73H361.6l1.6,3.2H373a9.28,9.28,0,0,1,5.1,1.35,11.51,11.51,0,0,1,3.46,3.38,15.34,15.34,0,0,1,2,4.59,20,20,0,0,1,.65,4.94,16.63,16.63,0,0,1-.65,4.59,13,13,0,0,1-2,4,9.63,9.63,0,0,1-3.42,2.87,10.78,10.78,0,0,1-5,1.09H361.46l.07-30Z" transform="translate(0 0)"/></g></svg>